# This file uses centimeters as units for non-parametric coordinates.

mtllib map_mesh.mtl
g default
v 29.989346 0.000000 -18.188541
v 35.528713 0.000000 -18.188541
v 29.989346 0.000000 -27.881792
v 35.528713 0.000000 -27.881792
v 29.989346 0.000000 -13.090595
v 35.528713 0.000000 -13.090595
v 31.595041 0.000000 -8.167913
v 35.622334 0.000000 -11.971267
v 36.681709 0.000000 -6.939615
v 36.680916 0.000000 -12.478984
v 37.031563 0.000000 -6.964638
v 41.240135 0.000000 -10.566378
v 36.778904 0.000000 -6.333523
v 42.316917 0.000000 -6.456200
v 36.789314 0.000000 0.677416
v 42.327332 0.000000 0.554739
v 38.368507 0.000000 5.732525
v 42.229427 0.000000 1.760380
v 42.869785 0.000000 6.406235
v 43.534710 0.000000 0.866865
v 43.640133 0.000000 6.384372
v 48.346214 0.000000 2.367617
v 43.687710 0.000000 6.986433
v 49.225777 0.000000 6.866320
v 43.720764 0.000000 13.774892
v 49.604820 0.000000 13.988940
v 37.283966 0.000000 -17.976366
v 40.759541 0.000000 -14.246835
v 37.209332 0.000000 -19.999962
v 42.305691 0.000000 -19.872772
v 38.003090 0.000000 -24.256266
v 41.876049 0.000000 -20.941263
v 43.585518 0.000000 -25.792465
v 43.597759 0.000000 -20.694536
v 49.721447 0.000000 -25.807203
v 49.733688 0.000000 -20.709270
v -49.867046 0.000000 -14.140518
v -37.270103 0.000000 -14.140518
v -49.867046 0.000000 -19.279354
v -37.270103 0.000000 -19.279354
v -36.312500 0.000000 -13.725438
v -32.185719 0.000000 -18.939182
v -35.940704 0.000000 -12.895367
v -30.424290 0.000000 -12.904054
v -35.294449 0.000000 -7.999795
v -30.494310 0.000000 -12.323772
v -29.726183 0.000000 -7.405871
v -29.700274 0.000000 -12.544643
v 9.547832 0.000000 -7.491074
v 9.573742 0.000000 -12.629845
v 9.863800 0.000000 -6.943065
v 14.920078 0.000000 -11.822855
v 10.400600 0.000000 -6.199985
v 15.917061 0.000000 -6.201721
v 11.397968 0.000000 -1.173513
v 16.054577 0.000000 -5.374758
v 16.671974 0.000000 -0.891803
v 17.285286 0.000000 -5.633855
v 17.217127 0.000000 -0.075546
v 21.879524 0.000000 -4.831727
v 16.988693 0.000000 1.275587
v 21.880455 0.000000 0.518410
v 17.842361 0.000000 5.731098
v 22.438713 0.000000 0.668118
v 23.634880 0.000000 6.051575
v 23.566086 0.000000 0.535549
v 23.818916 0.000000 6.509121
v 28.291176 0.000000 1.588507
v 23.834290 0.000000 7.005640
v 29.161880 0.000000 7.028385
v 24.808647 0.000000 12.767105
v 29.085678 0.000000 7.675882
v 30.095406 0.000000 12.955917
v 34.372429 0.000000 7.864695
v 30.299492 0.000000 14.122139
v 35.813690 0.000000 13.964457
v 31.436783 0.000000 18.499628
v 35.783081 0.000000 14.518450
v 43.712555 0.000000 19.760859
v 49.754425 0.000000 19.761801
v 43.452904 -0.000000 20.935715
v 49.749962 -0.000000 20.805714
v -49.834038 0.000000 -0.457965
v -36.570446 0.000000 -0.457965
v -49.834038 0.000000 -6.103732
v -36.570446 0.000000 -6.103732
v -36.447552 0.000000 -0.293892
v -31.655834 0.000000 -4.152739
v -34.996445 0.000000 4.766178
v -30.204723 0.000000 0.907333
v -29.966736 0.000000 5.741904
v -29.730906 0.000000 0.759509
v -17.162748 0.000000 5.716639
v -16.926918 0.000000 0.734244
v -16.172136 0.000000 6.570902
v -12.570150 0.000000 1.298694
v -16.000126 0.000000 6.759032
v -10.771768 0.000000 6.444030
v -15.047155 0.000000 11.220437
v -10.738362 0.000000 6.975368
v -10.332561 0.000000 12.074376
v -9.937805 0.000000 7.036692
v -9.850870 0.000000 12.222910
v -5.536995 0.000000 7.685289
v -9.660088 0.000000 12.338269
v -4.436237 0.000000 12.015563
v -8.380119 0.000000 16.662649
v -3.956249 0.000000 13.378337
v -2.846394 0.000000 19.282381
v -2.867542 0.000000 13.977843
v 23.596767 -0.000000 19.177011
v 23.575649 -0.000000 13.872474
v 23.992641 -0.000000 19.504873
v 28.231457 -0.000000 15.014018
v 23.935848 -0.000000 20.595839
v 28.786808 -0.000000 20.601910
v 24.776447 -0.000000 24.974089
v 28.935863 -0.000000 21.220169
v 29.957249 -0.000000 25.626492
v 29.911282 -0.000000 21.182085
v 43.470524 -0.000000 25.422319
v 49.792088 -0.000000 25.350117
v 69.995064 0.000000 -25.855885
v 70.007309 0.000000 -20.757952
v 29.989346 -0.000000 -40.725731
v 35.528713 -0.000000 -40.725731
vt 0.000000 0.000000
vt 1.000000 0.000000
vt 0.000000 1.000000
vt 1.000000 1.000000
vt 0.000000 0.000000
vt 1.000000 0.000000
vt 1.000000 1.000000
vt 0.000000 1.000000
vt 0.000000 0.000000
vt 1.000000 0.000000
vt 1.000000 1.000000
vt 0.000000 1.000000
vt 0.000000 0.000000
vt 1.000000 0.000000
vt 1.000000 1.000000
vt 0.000000 1.000000
vt 0.000000 0.000000
vt 1.000000 0.000000
vt 1.000000 1.000000
vt 0.000000 1.000000
vt 0.000000 0.000000
vt 1.000000 0.000000
vt 1.000000 1.000000
vt 0.000000 1.000000
vt 0.000000 0.000000
vt 1.000000 0.000000
vt 1.000000 1.000000
vt 0.000000 1.000000
vt 0.000000 0.000000
vt 1.000000 0.000000
vt 1.000000 1.000000
vt 0.000000 1.000000
vt 0.000000 0.000000
vt 1.000000 0.000000
vt 1.000000 1.000000
vt 0.000000 1.000000
vt 0.000000 0.000000
vt 1.000000 0.000000
vt 1.000000 1.000000
vt 0.000000 1.000000
vt 0.000000 0.000000
vt 1.000000 0.000000
vt 1.000000 1.000000
vt 0.000000 1.000000
vt 0.000000 0.000000
vt 1.000000 0.000000
vt 1.000000 1.000000
vt 0.000000 1.000000
vt 0.000000 0.000000
vt 1.000000 0.000000
vt 1.000000 1.000000
vt 0.000000 1.000000
vt 0.000000 0.000000
vt 1.000000 0.000000
vt 1.000000 1.000000
vt 0.000000 1.000000
vt 0.000000 0.000000
vt 1.000000 0.000000
vt 1.000000 1.000000
vt 0.000000 1.000000
vt 0.000000 0.000000
vt 1.000000 0.000000
vt 1.000000 1.000000
vt 0.000000 1.000000
vt 0.000000 0.000000
vt 1.000000 0.000000
vt 1.000000 1.000000
vt 0.000000 1.000000
vt 0.000000 0.000000
vt 1.000000 0.000000
vt 1.000000 1.000000
vt 0.000000 1.000000
vt 0.000000 0.000000
vt 1.000000 0.000000
vt 1.000000 1.000000
vt 0.000000 1.000000
vt 0.000000 0.000000
vt 1.000000 0.000000
vt 1.000000 1.000000
vt 0.000000 1.000000
vt 0.000000 0.000000
vt 1.000000 0.000000
vt 1.000000 1.000000
vt 0.000000 1.000000
vt 0.000000 0.000000
vt 1.000000 0.000000
vt 1.000000 1.000000
vt 0.000000 1.000000
vt 0.000000 0.000000
vt 1.000000 0.000000
vt 1.000000 1.000000
vt 0.000000 1.000000
vt 0.000000 0.000000
vt 1.000000 0.000000
vt 1.000000 1.000000
vt 0.000000 1.000000
vt 0.000000 0.000000
vt 1.000000 0.000000
vt 1.000000 1.000000
vt 0.000000 1.000000
vt 0.000000 0.000000
vt 1.000000 0.000000
vt 1.000000 1.000000
vt 0.000000 1.000000
vt 0.000000 0.000000
vt 1.000000 0.000000
vt 1.000000 1.000000
vt 0.000000 1.000000
vt 0.000000 0.000000
vt 1.000000 0.000000
vt 1.000000 1.000000
vt 0.000000 1.000000
vt 0.000000 0.000000
vt 1.000000 0.000000
vt 1.000000 1.000000
vt 0.000000 1.000000
vt 0.000000 0.000000
vt 1.000000 0.000000
vt 1.000000 1.000000
vt 0.000000 1.000000
vt 0.000000 0.000000
vt 1.000000 0.000000
vt 1.000000 1.000000
vt 0.000000 1.000000
vt 0.000000 0.000000
vt 1.000000 0.000000
vt 1.000000 1.000000
vt 0.000000 1.000000
vt 0.000000 0.000000
vt 1.000000 0.000000
vt 1.000000 1.000000
vt 0.000000 1.000000
vt 0.000000 0.000000
vt 1.000000 0.000000
vt 1.000000 1.000000
vt 0.000000 1.000000
vt 0.000000 0.000000
vt 1.000000 0.000000
vt 1.000000 1.000000
vt 0.000000 1.000000
vt 0.000000 0.000000
vt 1.000000 0.000000
vt 1.000000 1.000000
vt 0.000000 1.000000
vt 0.000000 0.000000
vt 1.000000 0.000000
vt 1.000000 1.000000
vt 0.000000 1.000000
vt 0.000000 0.000000
vt 1.000000 0.000000
vt 1.000000 1.000000
vt 0.000000 1.000000
vt 0.000000 0.000000
vt 1.000000 0.000000
vt 1.000000 1.000000
vt 0.000000 1.000000
vt 0.000000 0.000000
vt 1.000000 0.000000
vt 1.000000 1.000000
vt 0.000000 1.000000
vt 0.000000 0.000000
vt 1.000000 0.000000
vt 1.000000 1.000000
vt 0.000000 1.000000
vt 0.000000 0.000000
vt 1.000000 0.000000
vt 1.000000 1.000000
vt 0.000000 1.000000
vt 0.000000 0.000000
vt 1.000000 0.000000
vt 1.000000 1.000000
vt 0.000000 1.000000
vt 0.000000 0.000000
vt 1.000000 0.000000
vt 1.000000 1.000000
vt 0.000000 1.000000
vt 0.000000 0.000000
vt 1.000000 0.000000
vt 1.000000 1.000000
vt 0.000000 1.000000
vt 0.000000 0.000000
vt 1.000000 0.000000
vt 1.000000 1.000000
vt 0.000000 1.000000
vt 0.000000 0.000000
vt 1.000000 0.000000
vt 1.000000 1.000000
vt 0.000000 1.000000
vt 0.000000 0.000000
vt 1.000000 0.000000
vt 1.000000 1.000000
vt 0.000000 1.000000
vt 0.000000 0.000000
vt 1.000000 0.000000
vt 1.000000 1.000000
vt 0.000000 1.000000
vt 0.000000 0.000000
vt 1.000000 0.000000
vt 1.000000 1.000000
vt 0.000000 1.000000
vt 0.000000 0.000000
vt 1.000000 0.000000
vt 1.000000 1.000000
vt 0.000000 1.000000
vt 0.000000 0.000000
vt 1.000000 0.000000
vt 1.000000 1.000000
vt 0.000000 1.000000
vt 0.000000 0.000000
vt 1.000000 0.000000
vt 1.000000 1.000000
vt 0.000000 1.000000
vt 0.000000 0.000000
vt 1.000000 0.000000
vt 1.000000 1.000000
vt 0.000000 1.000000
vt 0.000000 0.000000
vt 1.000000 0.000000
vt 1.000000 1.000000
vt 0.000000 1.000000
vt 0.000000 0.000000
vt 1.000000 0.000000
vt 1.000000 1.000000
vt 0.000000 1.000000
vt 0.000000 0.000000
vt 1.000000 0.000000
vt 1.000000 1.000000
vt 0.000000 1.000000
vt 0.000000 0.000000
vt 1.000000 0.000000
vt 1.000000 1.000000
vt 0.000000 1.000000
vt 0.000000 0.000000
vt 1.000000 0.000000
vt 1.000000 1.000000
vt 0.000000 1.000000
vt 0.000000 0.000000
vt 1.000000 0.000000
vt 1.000000 1.000000
vt 0.000000 1.000000
vt 0.000000 0.000000
vt 1.000000 0.000000
vt 1.000000 1.000000
vt 0.000000 1.000000
vt 0.000000 0.000000
vt 1.000000 0.000000
vt 1.000000 1.000000
vt 0.000000 1.000000
vn 0.000000 1.000000 0.000000
vn 0.000000 1.000000 0.000000
vn 0.000000 1.000000 -0.000000
vn 0.000000 1.000000 -0.000000
vn 0.000000 1.000000 0.000000
vn 0.000000 1.000000 0.000000
vn 0.000000 1.000000 0.000000
vn 0.000000 1.000000 0.000000
vn 0.000000 1.000000 0.000000
vn 0.000000 1.000000 0.000000
vn 0.000000 1.000000 0.000000
vn 0.000000 1.000000 0.000000
vn 0.000000 1.000000 0.000000
vn 0.000000 1.000000 0.000000
vn 0.000000 1.000000 0.000000
vn 0.000000 1.000000 0.000000
vn 0.000000 1.000000 0.000000
vn 0.000000 1.000000 0.000000
vn 0.000000 1.000000 0.000000
vn 0.000000 1.000000 0.000000
vn 0.000000 1.000000 0.000000
vn 0.000000 1.000000 0.000000
vn 0.000000 1.000000 0.000000
vn 0.000000 1.000000 0.000000
vn 0.000000 1.000000 0.000000
vn 0.000000 1.000000 0.000000
vn 0.000000 1.000000 0.000000
vn 0.000000 1.000000 0.000000
vn 0.000000 1.000000 0.000000
vn 0.000000 1.000000 0.000000
vn 0.000000 1.000000 0.000000
vn 0.000000 1.000000 0.000000
vn 0.000000 1.000000 0.000000
vn 0.000000 1.000000 0.000000
vn -0.000000 1.000000 0.000000
vn -0.000000 1.000000 0.000000
vn 0.000000 1.000000 0.000000
vn 0.000000 1.000000 0.000000
vn 0.000000 1.000000 0.000000
vn 0.000000 1.000000 0.000000
vn 0.000000 1.000000 0.000000
vn 0.000000 1.000000 0.000000
vn 0.000000 1.000000 0.000000
vn 0.000000 1.000000 0.000000
vn 0.000000 1.000000 0.000000
vn 0.000000 1.000000 0.000000
vn 0.000000 1.000000 0.000000
vn 0.000000 1.000000 0.000000
vn 0.000000 1.000000 0.000000
vn 0.000000 1.000000 0.000000
vn 0.000000 1.000000 0.000000
vn 0.000000 1.000000 0.000000
vn 0.000000 1.000000 0.000000
vn 0.000000 1.000000 0.000000
vn 0.000000 1.000000 0.000000
vn 0.000000 1.000000 0.000000
vn 0.000000 1.000000 0.000000
vn 0.000000 1.000000 0.000000
vn 0.000000 1.000000 0.000000
vn 0.000000 1.000000 0.000000
vn 0.000000 1.000000 0.000000
vn 0.000000 1.000000 0.000000
vn 0.000000 1.000000 0.000000
vn 0.000000 1.000000 0.000000
vn 0.000000 1.000000 0.000000
vn 0.000000 1.000000 0.000000
vn 0.000000 1.000000 0.000000
vn 0.000000 1.000000 0.000000
vn 0.000000 1.000000 0.000000
vn 0.000000 1.000000 0.000000
vn 0.000000 1.000000 0.000000
vn 0.000000 1.000000 0.000000
vn 0.000000 1.000000 0.000000
vn 0.000000 1.000000 0.000000
vn 0.000000 1.000000 0.000000
vn 0.000000 1.000000 0.000000
vn 0.000000 1.000000 0.000000
vn 0.000000 1.000000 0.000000
vn 0.000000 1.000000 0.000000
vn 0.000000 1.000000 0.000000
vn 0.000000 1.000000 0.000000
vn 0.000000 1.000000 0.000000
vn 0.000000 1.000000 0.000000
vn 0.000000 1.000000 0.000000
vn 0.000000 1.000000 0.000000
vn 0.000000 1.000000 0.000000
vn 0.000000 1.000000 0.000000
vn 0.000000 1.000000 0.000000
vn 0.000000 1.000000 0.000000
vn 0.000000 1.000000 0.000000
vn 0.000000 1.000000 0.000000
vn 0.000000 1.000000 0.000000
vn 0.000000 1.000000 0.000000
vn 0.000000 1.000000 0.000000
vn 0.000000 1.000000 0.000000
vn 0.000000 1.000000 0.000000
vn 0.000000 1.000000 0.000000
vn 0.000000 1.000000 0.000000
vn 0.000000 1.000000 0.000000
vn 0.000000 1.000000 0.000000
vn 0.000000 1.000000 0.000000
vn 0.000000 1.000000 0.000000
vn 0.000000 1.000000 0.000000
vn 0.000000 1.000000 0.000000
vn 0.000000 1.000000 0.000000
vn 0.000000 1.000000 0.000000
vn 0.000000 1.000000 0.000000
vn 0.000000 1.000000 0.000000
vn 0.000000 1.000000 0.000000
vn 0.000000 1.000000 0.000000
vn 0.000000 1.000000 0.000000
vn 0.000000 1.000000 0.000000
vn 0.000000 1.000000 0.000000
vn 0.000000 1.000000 0.000000
vn 0.000000 1.000000 0.000000
vn 0.000000 1.000000 0.000000
vn 0.000000 1.000000 0.000000
vn 0.000000 1.000000 0.000000
vn 0.000000 1.000000 0.000000
vn 0.000000 1.000000 0.000000
vn 0.000000 1.000000 -0.000000
vn 0.000000 1.000000 -0.000000
vn 0.000000 1.000000 -0.000000
vn 0.000000 1.000000 -0.000000
vn 0.000000 1.000000 0.000000
vn 0.000000 1.000000 0.000000
vn 0.000000 1.000000 0.000000
vn 0.000000 1.000000 0.000000
vn 0.000000 1.000000 -0.000000
vn 0.000000 1.000000 -0.000000
vn 0.000000 1.000000 0.000000
vn 0.000000 1.000000 0.000000
vn 0.000000 1.000000 0.000000
vn 0.000000 1.000000 0.000000
vn 0.000000 1.000000 0.000000
vn 0.000000 1.000000 0.000000
vn -0.000000 1.000000 0.000000
vn -0.000000 1.000000 0.000000
vn 0.000000 1.000000 -0.000000
vn 0.000000 1.000000 -0.000000
s 1
g pPlane5
usemtl initialShadingGroup
f 1/1/1 2/2/2 4/4/3 3/3/4
f 2/5/2 1/6/1 5/7/5 6/8/6
f 6/9/6 5/10/5 7/11/7 8/12/8
f 8/13/8 7/14/7 9/15/9 10/16/10
f 10/17/10 9/18/9 11/19/11 12/20/12
f 12/21/12 11/22/11 13/23/13 14/24/14
f 14/25/14 13/26/13 15/27/15 16/28/16
f 16/29/16 15/30/15 17/31/17 18/32/18
f 18/33/18 17/34/17 19/35/19 20/36/20
f 20/37/20 19/38/19 21/39/21 22/40/22
f 22/41/22 21/42/21 23/43/23 24/44/24
f 24/45/24 23/46/23 25/47/25 26/48/26
f 2/49/2 6/50/6 28/51/27 27/52/28
f 27/53/28 28/54/27 30/55/29 29/56/30
f 29/57/30 30/58/29 32/59/31 31/60/32
f 31/61/32 32/62/31 34/63/33 33/64/34
f 33/65/34 34/66/33 36/67/35 35/68/36
s 2
f 37/69/37 38/70/38 40/71/39 39/72/40
f 40/73/39 38/74/38 41/75/41 42/76/42
f 42/77/42 41/78/41 43/79/43 44/80/44
f 44/81/44 43/82/43 45/83/45 46/84/46
f 46/85/46 45/86/45 47/87/47 48/88/48
f 48/89/48 47/90/47 49/91/49 50/92/50
f 50/93/50 49/94/49 51/95/51 52/96/52
f 52/97/52 51/98/51 53/99/53 54/100/54
f 54/101/54 53/102/53 55/103/55 56/104/56
f 56/105/56 55/106/55 57/107/57 58/108/58
f 58/109/58 57/110/57 59/111/59 60/112/60
f 60/113/60 59/114/59 61/115/61 62/116/62
f 62/117/62 61/118/61 63/119/63 64/120/64
f 64/121/64 63/122/63 65/123/65 66/124/66
s 3
f 66/125/67 65/126/68 67/127/69 68/128/70
f 68/129/70 67/130/69 69/131/71 70/132/72
f 70/133/72 69/134/71 71/135/73 72/136/74
s 4
f 72/137/75 71/138/76 73/139/77 74/140/78
f 74/141/78 73/142/77 75/143/79 76/144/80
f 76/145/80 75/146/79 77/147/81 78/148/82
f 78/149/82 77/150/81 79/151/83 25/152/84
f 25/153/84 79/154/83 80/155/85 26/156/86
f 80/157/85 79/158/83 81/159/87 82/160/88
s 5
f 83/161/89 84/162/90 86/163/91 85/164/92
f 86/165/91 84/166/90 87/167/93 88/168/94
f 88/169/94 87/170/93 89/171/95 90/172/96
f 90/173/96 89/174/95 91/175/97 92/176/98
f 92/177/98 91/178/97 93/179/99 94/180/100
f 94/181/100 93/182/99 95/183/101 96/184/102
f 96/185/102 95/186/101 97/187/103 98/188/104
f 98/189/104 97/190/103 99/191/105 100/192/106
f 100/193/106 99/194/105 101/195/107 102/196/108
s off
f 102/197/109 101/198/110 103/199/111 104/200/112
s 6
f 104/201/113 103/202/114 105/203/115 106/204/116
f 106/205/116 105/206/115 107/207/117 108/208/118
s 7
f 108/209/119 107/210/120 109/211/121 110/212/122
f 110/213/122 109/214/121 111/215/123 112/216/124
f 112/217/124 111/218/123 113/219/125 114/220/126
f 114/221/126 113/222/125 115/223/127 116/224/128
f 116/225/128 115/226/127 117/227/129 118/228/130
f 118/229/130 117/230/129 119/231/131 120/232/132
f 120/233/132 119/234/131 121/235/133 81/236/134
f 81/237/134 121/238/133 122/239/135 82/240/136
s 1
f 35/241/36 36/242/35 124/243/137 123/244/138
f 3/245/4 4/246/3 126/247/139 125/248/140
